        <svg width="512" height="433" viewBox="0 0 512 433" fill="none" xmlns="http://www.w3.org/2000/svg">
            <g id="Vector">
                <path fill-rule="evenodd" clip-rule="evenodd" d="M216.29 0C335.75 0 432.59 96.84 432.59 216.29C432.59 335.75 335.75 432.59 216.29 432.59C96.84 432.59 0 335.75 0 216.29C0 96.84 96.84 0 216.29 0Z" fill="#FFEDED" />
                <path d="M216.29 0.159912C275.97 0.159912 330.01 24.3499 369.12 63.4699C408.23 102.58 432.43 156.62 432.43 216.29C432.43 275.97 408.23 330.01 369.12 369.12C330.01 408.23 275.97 432.43 216.29 432.43C156.62 432.43 102.58 408.23 63.4602 369.12C24.3502 330.01 0.160156 275.97 0.160156 216.29C0.160156 156.62 24.3502 102.58 63.4602 63.4699C102.58 24.3499 156.62 0.159912 216.29 0.159912ZM350.27 82.3199C315.99 48.0399 268.61 26.8299 216.29 26.8299C163.97 26.8299 116.6 48.0399 82.3202 82.3199C48.0402 116.6 26.8302 163.97 26.8302 216.29C26.8302 268.61 48.0402 315.99 82.3202 350.27C116.6 384.55 163.97 405.76 216.29 405.76C268.61 405.76 315.99 384.55 350.27 350.27C384.55 315.99 405.76 268.61 405.76 216.29C405.76 163.97 384.55 116.6 350.27 82.3199Z" fill="#FF0000" />
                <path d="M216.29 70.8899C256.44 70.8899 292.79 87.1699 319.1 113.48C345.41 139.79 361.7 176.15 361.7 216.29C361.7 256.44 345.41 292.79 319.1 319.1C292.79 345.42 256.44 361.7 216.29 361.7C176.15 361.7 139.79 345.42 113.48 319.1C87.1701 292.79 70.8901 256.44 70.8901 216.29C70.8901 176.15 87.1701 139.79 113.48 113.48C139.79 87.1699 176.15 70.8899 216.29 70.8899ZM300.25 132.33C278.77 110.85 249.08 97.5599 216.29 97.5599C183.5 97.5599 153.81 110.85 132.33 132.33C110.85 153.81 97.5601 183.5 97.5601 216.29C97.5601 249.08 110.85 278.77 132.33 300.25C153.81 321.74 183.5 335.03 216.29 335.03C249.08 335.03 278.77 321.74 300.25 300.25C321.74 278.77 335.03 249.08 335.03 216.29C335.03 183.5 321.74 153.81 300.25 132.33Z" fill="#FF0000" />
                <path d="M216.29 144.3C236.1 144.3 254.09 152.36 267.15 165.39L267.2 165.44C280.24 178.52 288.29 196.49 288.29 216.29C288.29 236.1 280.23 254.1 267.2 267.15L267.15 267.2C254.07 280.24 236.09 288.29 216.29 288.29C196.47 288.29 178.49 280.23 165.44 267.2L165.39 267.15C152.35 254.07 144.3 236.09 144.3 216.29C144.3 196.47 152.36 178.49 165.39 165.44L165.44 165.39C178.52 152.35 196.49 144.3 216.29 144.3ZM248.35 184.19C240.18 176.03 228.85 170.97 216.29 170.97C203.74 170.97 192.4 176.03 184.24 184.19L184.19 184.24C176.02 192.4 170.97 203.74 170.97 216.29C170.97 228.85 176.02 240.18 184.19 248.35L184.24 248.39C192.4 256.56 203.74 261.62 216.29 261.62C228.85 261.62 240.18 256.56 248.35 248.39L248.39 248.35C256.56 240.18 261.62 228.85 261.62 216.29C261.62 203.74 256.56 192.4 248.39 184.24L248.35 184.19Z" fill="#FF0000" />
                <path d="M233.19 221.15C220.55 228.5 209.4 209.42 221.97 202.02L369.29 113.99L382.1 74.06C382.508 72.7481 383.163 71.5262 384.03 70.46C384.89 69.39 385.95 68.48 387.13 67.8L462.71 24.15C465.37 22.61 468.4 22.3 471.15 23.03C473.88 23.77 476.36 25.56 477.9 28.22C478.648 29.5078 479.131 30.9325 479.32 32.41C479.49 33.82 479.38 35.26 479.02 36.63L472.77 68.36L504.64 79.84C507.54 80.87 509.73 82.99 510.94 85.56C512.15 88.12 512.38 91.16 511.34 94.04C510.91 95.25 510.28 96.35 509.53 97.27L509.95 97.9L430.87 143.56C429.45 144.38 427.88 144.85 426.32 145C424.7 145.14 423.08 144.94 421.59 144.41L380.41 133.18L233.19 221.15Z" fill="#2B2A29" />
            </g>
        </svg>